# xmcd
#
# Track frame offsets:
#	150
#	6785
#	10780
#	16020
#	22100
#	26062
#	33685
#	37192
#	42832
#	47570
#	52487
#	58620
#	62715
#	68725
#	73095
#	79067
#	84292
#	93705
#	97110
#	100897
#	103940
#	111682
#	120632
#	127287
#	132307
#	138015
#	144310
#	153587
#	157975
#	164000
#	170807
#	174902
#	180665
#	184625
#	186752
#	195560
#
# Disc length: 2729 seconds
#
# Revision: 1
# Processed by: cddbd v1.5.1PL0 Copyright (c) Steve Scherf et al.
# Submitted via: CDex 1.50Beta5
#
DISCID=080aa724
DTITLE=ナツメタル - ナツメタルノンストップチャレンジ
DYEAR=1900
DGENRE=Rock
TTITLE0=Metallized Bolero
TTITLE1=また逢う日まで
TTITLE2=ダンシングオールナイト
TTITLE3=なんてったってアイドル
TTITLE4=狙いうち
TTITLE5=与作
TTITLE6=プレイバック Part 2
TTITLE7=ギンギラギンにさりげなく
TTITLE8=抱きしめてTonight
TTITLE9=ロンリー・チャップリン
TTITLE10=神田川
TTITLE11=ルビーの指輪
TTITLE12=ブルー・ライト・ヨコハマ
TTITLE13=北酒場
TTITLE14=チャンピオン
TTITLE15=ドリフのズンドコ節
TTITLE16=贈る言葉
TTITLE17=太陽がくれた季節
TTITLE18=恋のダイヤル6700
TTITLE19=ジュリアに傷心
TTITLE20=カナダからの手紙
TTITLE21=花の首飾り
TTITLE22=津軽海峡冬景色
TTITLE23=UFO
TTITLE24=お嫁サンバ
TTITLE25=いとしのエリー
TTITLE26=男と女のラブゲーム
TTITLE27=ビューティフル・サンデー
TTITLE28=MUGO・ん…色っぽい
TTITLE29=YOUNG MAN (Y.M.C.A)
TTITLE30=赤いスイートピー
TTITLE31=ミ・アモーレ
TTITLE32=クリスマス・イブ
TTITLE33=愛は勝つ
TTITLE34=ガラスの十代
TTITLE35=Metallized Bolero (Reprise)
EXTD=
EXTT0=
EXTT1=
EXTT2=
EXTT3=
EXTT4=
EXTT5=
EXTT6=
EXTT7=
EXTT8=
EXTT9=
EXTT10=
EXTT11=
EXTT12=
EXTT13=
EXTT14=
EXTT15=
EXTT16=
EXTT17=
EXTT18=
EXTT19=
EXTT20=
EXTT21=
EXTT22=
EXTT23=
EXTT24=
EXTT25=
EXTT26=
EXTT27=
EXTT28=
EXTT29=
EXTT30=
EXTT31=
EXTT32=
EXTT33=
EXTT34=
EXTT35=
PLAYORDER=
